<svg xmlns="http://www.w3.org/2000/svg" xmlns:xlink="http://www.w3.org/1999/xlink" version="1.1" x="0px" y="0px" width="640px" height="343.43px" viewBox="0 0 640 343.43" enable-background="new 0 0 640 343.43" xml:space="preserve"><path fill="#FFFFFF" d="M394.929 6.56C357.2-8.247 315.7 2.9 290.1 31.327l-99.917 107 c-1.347 1.443-0.72 3.2 0.9 3.499l26.608 1.638c2.132 0.1 2.4 2 1.3 3.22l-65.068 70.2 c-1.129 1.2 0.2 3.1 1.8 2.642l92.905-29.354c1.952-0.688 3.5 1.1 2.6 2.619l-12.425 22 c-0.644 1.3 0.6 3 2.1 2.848l133.945-29.835c32.002-5.045 60.581-26.421 73.282-58.752 C467.347 80.5 443.4 25.7 394.9 6.6 M409.789 103.208c-0.084 0.023-0.115 0.069-0.176 0.096l-29.92 12.211l-0.918 0.4 l-7.289 33.319c-0.498 1.129-1.944 1.401-2.917 0.456l-21.812-25.785l-0.107-0.065l-122.928 52.8 c-0.111 0.053-0.229 0.084-0.345 0.084c-0.455 0-0.831-0.375-0.831-0.831c0-0.275 0.13-0.517 0.344-0.666l106.272-79.549 l-13.451-30.701c-0.659-1.405 0.562-2.886 2.22-2.477h0.008l32.568 8.02l25.28-22.508l0.008 0 c1.087-0.861 2.572-0.253 2.8 1.114l2.473 33.812l29.162 17.05C411.542 100.8 411.4 102.6 409.8 103.2"/><polygon fill="#FFFFFF" points="40.9,317.1 49.6,274.9 29.7,282.3 52.6,260.3 56.1,243.4 56.1,243.3 29.4,243.3 9,341.3 74.1,341.3 79.4,317.1"/><path fill="#FFFFFF" d="M122.243 278.553l-13.555 62.764H83.577l12.552-62.733L122.243 278.553z M127.599 255.9 c0 7.84-6.343 14.301-14.551 14.301c-7.705 0-12.065-4.854-12.065-11.943c0-8.337 6.6-14.554 14.55-14.554 C122.997 243.7 127.6 248.5 127.6 255.9"/><path fill="#FFFFFF" d="M241.002 298.91h-14.803l-8.954 42.406H192.13l8.95-42.406h-8.582l4.475-20.388h8.46l1.374-5.972 c2.852-12.679 8.479-21.016 19.771-25.127c11.281-4.096 26.857-3.093 26.857-3.093l-1.75 8.3 c-13.168 2.971-18.148 9.945-20.633 23.504l-0.501 2.358h14.803L241.002 298.91z"/><path fill="#FFFFFF" d="M359.375 303.764c-2.619-0.995-5.352-1.493-9.953-1.493c-6.339 0-10.565 3.484-11.943 10.076l-6.079 29 h-25.126l13.099-62.764h24.997l-1.164 7.182c4.364-4.731 10.32-9.08 17.035-9.08c1.875 0 3.6 0.3 4.9 0.62L359.375 303.764z"/><path fill="#FFFFFF" d="M380.016 249.169l26.106-4.846l-8.33 39.298c7.962-5.589 12.188-7.089 19.278-7.089 c11.07 0 17.2 7.2 17.2 17.899c0 1.5-0.26 4.363-0.75 6.714l-8.574 40.171h-25.127l7.342-34.329 c0.245-1.103 0.367-2.098 0.367-2.849c0-3.108-1.738-4.976-4.846-4.976c-2.113 0-3.614 0.367-4.854 1.2 c-2.985 1.99-4.593 4.341-5.589 8.949l-6.714 31.956H360.37L380.016 249.169z"/><polygon fill="#FFFFFF" points="529.8,341.3 504.7,341.3 524.4,249.3 550.5,244.3"/><path fill="#FFFFFF" d="M589.16 337.213c-4.226 3.858-10.197 6.217-16.667 6.217c-17.157 0-25.861-12.181-25.861-28.358 c0-20.51 19.147-38.662 42.406-38.662c3.729 0 7.2 0.7 9.7 1.99l6.339-29.23l26.114-4.846L611.5 341.263h-23.61 L589.16 337.213z M589.91 321.051l4.725-23.511c-1.493-0.988-3.361-1.485-5.85-1.485c-9.945 0-16.529 7.334-16.529 18.2 c0 6.5 3.8 9.4 10.2 9.448C585.057 323.7 588 322.7 589.9 321.1"/><path fill="#FFFFFF" d="M149.127 318.05c-0.126 0.59-0.241 1.669-0.241 2.267c0 3.8 2.6 5.1 9.5 5.1 c6.194 0 18.62-2.542 23.737-4.334l-3.622 18.497c-6.545 2.373-16.785 3.683-24.992 3.683c-19.286 0-28.568-5.236-28.568-22.73 c0-17.142 7.974-43.923 38.682-43.923c19.519 0 25.4 8.8 25.4 18.092C188.999 306.7 178.6 317 149.1 318.1 M162.203 292.472c-6.247 0-9.846 5.19-11.304 11.17c12.372 0 16.093-3.858 16.093-7.051 C166.992 294.3 165 292.5 162.2 292.5"/><path fill="#FFFFFF" d="M265.907 318.05c-0.127 0.59-0.241 1.669-0.241 2.267c0 3.8 2.6 5.1 9.5 5.1 c6.187 0 18.62-2.542 23.73-4.334l-3.614 18.497c-6.546 2.373-16.786 3.683-25 3.683c-19.278 0-28.561-5.236-28.561-22.73 c0-17.142 7.974-43.93 38.682-43.93c19.519 0 25.3 8.8 25.3 18.099C305.771 306.7 295.4 317 265.9 318.1 M278.983 292.472c-6.255 0-9.846 5.19-11.312 11.17c12.379 0 16.093-3.858 16.093-7.051 C283.765 294.3 281.8 292.5 279 292.5"/><path fill="#FFFFFF" d="M463.496 318.05c-0.131 0.59-0.246 1.669-0.246 2.267c0 3.8 2.6 5.1 9.5 5.1 c6.187 0 18.619-2.542 23.733-4.334l-3.613 18.497c-6.554 2.373-16.789 3.683-24.997 3.683c-19.285 0-28.579-5.236-28.579-22.73 c0-17.142 7.984-43.93 38.693-43.93c19.522 0 25.4 8.8 25.4 18.099C503.367 306.7 493 317 463.5 318.1 M476.572 292.472c-6.263 0-9.846 5.19-11.316 11.17c12.381 0 16.102-3.858 16.102-7.051 C481.357 294.3 479.4 292.5 476.6 292.5"/></svg>